Coordinates
version=1
nRows=12
nColumns=46
inDegrees=yes

Units are S.I. units (second, meters, Newtons, ...)
Angles are in degrees.

endheader
time	pelvis_tilt	pelvis_list	pelvis_rotation	pelvis_tx	pelvis_ty	pelvis_tz	bb_angle	bb_tx	bb_ty	bb_tz	hip_flexion_r	hip_adduction_r	hip_rotation_r	knee_angle_r	knee_angle_r_beta	ankle_angle_r	subtalar_angle_r	mtp_angle_r	crank_angle_r	hip_flexion_l	hip_adduction_l	hip_rotation_l	knee_angle_l	knee_angle_l_beta	ankle_angle_l	subtalar_angle_l	mtp_angle_l	crank_angle_l	lumbar_extension	lumbar_bending	lumbar_rotation	arm_flex_r	arm_add_r	arm_rot_r	elbow_flex_r	pro_sup_r	wrist_flex_r	wrist_dev_r	arm_flex_l	arm_add_l	arm_rot_l	elbow_flex_l	pro_sup_l	wrist_flex_l	wrist_dev_l
      0.00500000	    -17.53284244	     -2.61807936	     -0.73684925	      0.06641734	      1.09403075	     -0.26155267	      0.00000000	      0.50000000	      0.00000000	      0.25000000	     81.61629230	     -2.71487825	     -1.08769555	     84.29497366	      1.47122483	     13.01936431	     -8.37998127	      0.00000000	      0.00000000	     52.52106025	    -10.33676366	     -0.12197685	     72.24326461	      1.26088283	     10.77971644	     -2.26319805	      0.00000000	      0.00000000	    -49.56375562	      1.49224012	      5.00080445	     89.63539453	    -10.12449628	     39.02170013	     28.98822669	     23.41889375	      0.00000000	      0.00000000	     89.56615601	     -6.37996138	     43.32525871	     29.92624050	     24.14236509	      0.00000000	      0.00000000
      0.01000000	    -17.49957995	     -2.61047770	     -0.75140442	      0.06646171	      1.09406486	     -0.26154636	      0.00000000	      0.50000000	      0.00000000	      0.25000000	     81.62302550	     -2.70150518	     -1.07202728	     84.37770515	      1.47266877	     13.03473321	     -8.40476987	      0.00000000	      0.00000000	     52.44069991	    -10.33873162	     -0.14009159	     72.17656621	      1.25971872	     10.82297582	     -2.22293631	      0.00000000	      0.00000000	    -49.59745001	      1.48123252	      4.95893030	     89.63873281	    -10.15012140	     39.35408979	     28.80807967	     24.40013035	      0.00000000	      0.00000000	     89.56741641	     -6.66276370	     43.81904952	     29.94936212	     25.24521899	      0.00000000	      0.00000000
      0.01500000	    -17.36156741	     -2.66383591	     -0.79781733	      0.06653162	      1.09427080	     -0.26145144	      0.00000000	      0.50000000	      0.00000000	      0.25000000	     81.49657681	     -2.63163686	     -1.12647144	     84.43641828	      1.47369351	     13.05924569	     -8.45479981	      0.00000000	      0.00000000	     52.25343054	    -10.47123441	     -0.17874156	     72.11039541	      1.25856382	     10.91840057	     -1.98755698	      0.00000000	      0.00000000	    -49.78605878	      1.47715322	      5.07792426	     89.63474805	    -10.08896888	     38.50046453	     28.77469096	     25.49654241	      0.00000000	      0.00000000	     89.55968834	     -6.52535424	     43.01858011	     29.90854644	     26.33756620	      0.00000000	      0.00000000
      0.02000000	    -17.47202763	     -2.64740630	     -0.70311462	      0.06644213	      1.09408773	     -0.26176700	      0.00000000	      0.50000000	      0.00000000	      0.25000000	     81.68757031	     -2.75133145	     -1.10062032	     84.52669565	      1.47526914	     12.98917937	     -8.38201945	      0.00000000	      0.00000000	     52.36080103	    -10.28702488	     -0.05219876	     72.04531110	      1.25742789	     10.83138477	     -2.21953189	      0.00000000	      0.00000000	    -49.62240378	      1.56508658	      4.95082849	     89.64096019	    -10.16910135	     39.27660501	     28.42730094	     26.70633175	      0.00000000	      0.00000000	     89.57065451	     -6.71835035	     43.83048013	     29.52597136	     27.71281895	      0.00000000	      0.00000000
      0.02500000	    -17.50230207	     -2.68750739	     -0.73605857	      0.06639628	      1.09415650	     -0.26168176	      0.00000000	      0.50000000	      0.00000000	      0.25000000	     81.76196812	     -2.71055323	     -1.13413702	     84.61015819	      1.47672584	     12.99136625	     -8.44873990	      0.00000000	      0.00000000	     52.36514658	    -10.34740735	     -0.04957160	     71.97088655	      1.25612894	     10.82283783	     -2.19836772	      0.00000000	      0.00000000	    -49.58288890	      1.57165375	      5.00890338	     89.63858444	    -10.06268548	     38.73670428	     28.24948815	     27.25487200	      0.00000000	      0.00000000	     89.56846302	     -6.58877392	     43.44968350	     29.24657496	     28.30569793	      0.00000000	      0.00000000
      0.03000000	    -17.49652116	     -2.72494882	     -0.72646714	      0.06640580	      1.09418303	     -0.26172060	      0.00000000	      0.50000000	      0.00000000	      0.25000000	     81.77832059	     -2.70468688	     -1.16524921	     84.65603189	      1.47752649	     12.97310646	     -8.47668338	      0.00000000	      0.00000000	     52.33521355	    -10.35692723	     -0.02349802	     71.90668252	      1.25500836	     10.82464044	     -2.25315317	      0.00000000	      0.00000000	    -49.58716113	      1.62335250	      5.00301422	     89.64070889	    -10.16943068	     39.33651349	     28.32778898	     27.31751091	      0.00000000	      0.00000000	     89.56879228	     -6.82333398	     44.01270597	     29.39940671	     28.52110566	      0.00000000	      0.00000000
      0.03500000	    -17.42954695	     -2.78842587	     -0.70826608	      0.06637712	      1.09431654	     -0.26174860	      0.00000000	      0.50000000	      0.00000000	      0.25000000	     81.72654964	     -2.69970606	     -1.23361346	     84.72524929	      1.47873456	     13.01706526	     -8.51962567	      0.00000000	      0.00000000	     52.25366163	    -10.40007470	      0.02335192	     71.85276006	      1.25406724	     10.87041385	     -2.10019916	      0.00000000	      0.00000000	    -49.70575189	      1.68794941	      5.11278735	     89.63938407	    -10.17023806	     38.63230722	     28.39937133	     27.73466392	      0.00000000	      0.00000000	     89.56519748	     -6.66102962	     43.34415610	     29.39901908	     28.92063825	      0.00000000	      0.00000000
      0.04000000	    -17.50390130	     -2.72779330	     -0.73016417	      0.06637210	      1.09424738	     -0.26175459	      0.00000000	      0.50000000	      0.00000000	      0.25000000	     81.85844622	     -2.68945248	     -1.14747655	     84.79168439	      1.47989407	     12.96427651	     -8.52177281	      0.00000000	      0.00000000	     52.27485583	    -10.33836172	     -0.01248254	     71.74780149	      1.25223537	     10.77422656	     -2.26225953	      0.00000000	      0.00000000	    -49.60013856	      1.62654520	      5.02855054	     89.63703408	    -10.10606704	     38.84357606	     28.39587275	     26.97884902	      0.00000000	      0.00000000	     89.56804143	     -6.64819284	     43.53367630	     29.30223375	     28.19158272	      0.00000000	      0.00000000
      0.04500000	    -17.53365492	     -2.75327778	     -0.73303534	      0.06635576	      1.09420720	     -0.26173747	      0.00000000	      0.50000000	      0.00000000	      0.25000000	     81.92529316	     -2.67249123	     -1.16499792	     84.85986460	      1.48108404	     12.96369539	     -8.57478993	      0.00000000	      0.00000000	     52.28709903	    -10.35941179	     -0.01123655	     71.68022522	      1.25105594	     10.73697272	     -2.28165774	      0.00000000	      0.00000000	    -49.57571545	      1.65019590	      5.09825484	     89.63575081	    -10.06361294	     38.62949725	     28.34084567	     27.05411909	      0.00000000	      0.00000000	     89.56620475	     -6.48931035	     43.20778361	     29.16251067	     28.20293016	      0.00000000	      0.00000000
      0.05000000	    -17.52011836	     -2.77167027	     -0.71549534	      0.06637226	      1.09424797	     -0.26177414	      0.00000000	      0.50000000	      0.00000000	      0.25000000	     81.94035534	     -2.68188279	     -1.17676193	     84.92294990	      1.48218509	     12.95558013	     -8.59260949	      0.00000000	      0.00000000	     52.24315649	    -10.34910518	      0.01336079	     71.60191638	      1.24968919	     10.73531460	     -2.27596738	      0.00000000	      0.00000000	    -49.59598183	      1.67456845	      5.06683413	     89.64077126	    -10.31032961	     39.65918169	     28.52345554	     26.87955670	      0.00000000	      0.00000000	     89.56856390	     -6.83853851	     44.09395222	     29.49360550	     28.31049506	      0.00000000	      0.00000000
      0.05500000	    -17.51638563	     -2.73007074	     -0.77477204	      0.06640376	      1.09429436	     -0.26169520	      0.00000000	      0.50000000	      0.00000000	      0.25000000	     81.98256249	     -2.62379038	     -1.11629495	     84.99047077	      1.48336355	     12.95426106	     -8.60516016	      0.00000000	      0.00000000	     52.17253718	    -10.36395756	     -0.07218328	     71.49966693	      1.24790460	     10.71557461	     -2.30051565	      0.00000000	      0.00000000	    -49.61109435	      1.60383159	      5.08372841	     89.63767826	    -10.17939220	     39.02279521	     28.35248642	     27.60428300	      0.00000000	      0.00000000	     89.56752240	     -6.68714858	     43.58748985	     29.24586335	     28.95306476	      0.00000000	      0.00000000
      0.06000000	    -17.55794512	     -2.77442054	     -0.75768189	      0.06640932	      1.09426501	     -0.26171845	      0.00000000	      0.50000000	      0.00000000	      0.25000000	     82.05069075	     -2.62404749	     -1.14927854	     85.05349794	      1.48446358	     12.96452676	     -8.64158942	      0.00000000	      0.00000000	     52.19801298	    -10.37497610	     -0.02938157	     71.43309370	      1.24674268	     10.72227554	     -2.28599713	      0.00000000	      0.00000000	    -49.57858068	      1.65545050	      5.13674907	     89.63677416	    -10.08624626	     38.34592510	     28.04411126	     28.90444796	      0.00000000	      0.00000000	     89.56561035	     -6.51847517	     42.99475273	     28.90860775	     30.18976503	      0.00000000	      0.00000000
